<?xml version="1.0" encoding="UTF-8" standalone="no"?>
<svg
   enable-background="new 0 0 24 24"
   height="24px"
   viewBox="0 0 24 24"
   width="24px"
   fill="#e8eaed"
   version="1.1"
   id="svg2"
   sodipodi:docname="budgie-media-player-applet-pinned.svg"
   inkscape:version="1.3.2 (091e20ef0f, 2023-11-25)"
   xmlns:inkscape="http://www.inkscape.org/namespaces/inkscape"
   xmlns:sodipodi="http://sodipodi.sourceforge.net/DTD/sodipodi-0.dtd"
   xmlns="http://www.w3.org/2000/svg"
   xmlns:svg="http://www.w3.org/2000/svg">
  <defs
     id="defs2" />
  <sodipodi:namedview
     id="namedview2"
     pagecolor="#ffffff"
     bordercolor="#111111"
     borderopacity="1"
     inkscape:showpageshadow="0"
     inkscape:pageopacity="0"
     inkscape:pagecheckerboard="1"
     inkscape:deskcolor="#d1d1d1"
     inkscape:zoom="25.161216"
     inkscape:cx="11.068622"
     inkscape:cy="13.314142"
     inkscape:window-width="1870"
     inkscape:window-height="1052"
     inkscape:window-x="0"
     inkscape:window-y="0"
     inkscape:window-maximized="1"
     inkscape:current-layer="svg2" />
  <g
     id="g2"
     transform="rotate(30,13.318427,11.646729)">
    <path
       d="M 16,9 V 4 h 1 c 0.55,0 1,-0.45 1,-1 V 3 C 18,2.45 17.55,2 17,2 H 7 C 6.45,2 6,2.45 6,3 v 0 c 0,0.55 0.45,1 1,1 h 1 v 5 c 0,1.66 -1.34,3 -3,3 v 0 2 h 5.97 v 7 l 1,1 1,-1 V 14 H 19 v -2 0 c -1.66,0 -3,-1.34 -3,-3 z"
       fill-rule="evenodd"
       id="path1"
       style="fill:#454545;fill-opacity:1" />
  </g>
</svg>
