<?xml version="1.0" encoding="UTF-8" standalone="no"?>
<svg
   width="16"
   height="16"
   version="1.1"
   id="svg1"
   sodipodi:docname="pinned.svg"
   inkscape:version="1.3.2 (091e20ef0f, 2023-11-25)"
   xmlns:inkscape="http://www.inkscape.org/namespaces/inkscape"
   xmlns:sodipodi="http://sodipodi.sourceforge.net/DTD/sodipodi-0.dtd"
   xmlns="http://www.w3.org/2000/svg"
   xmlns:svg="http://www.w3.org/2000/svg">
  <defs
     id="defs1" />
  <sodipodi:namedview
     id="namedview1"
     pagecolor="#ffffff"
     bordercolor="#111111"
     borderopacity="1"
     inkscape:showpageshadow="0"
     inkscape:pageopacity="0"
     inkscape:pagecheckerboard="1"
     inkscape:deskcolor="#d1d1d1"
     inkscape:zoom="32"
     inkscape:cx="9.25"
     inkscape:cy="1.515625"
     inkscape:window-width="1920"
     inkscape:window-height="1005"
     inkscape:window-x="0"
     inkscape:window-y="0"
     inkscape:window-maximized="1"
     inkscape:current-layer="svg1" />
  <path
     id="path3"
     style="fill:#454545;fill-opacity:1;stroke-width:0.852052"
     inkscape:label="path1"
     d="M 8.9490063,0.08737754 C 8.8690896,0.02005557 8.7685149,-0.00832489 8.6714819,0 8.574449,0.00832502 8.4811043,0.05519482 8.4131235,0.13600094 l -0.022826,0.0271077 C 8.0796996,0.53194048 7.9284552,0.99851458 7.9669217,1.4767669 8.0025933,1.9204533 8.1960544,2.3247968 8.5155901,2.626285 L 5.9232781,5.7051571 C 5.5717673,5.441646 5.139263,5.3213058 4.6958996,5.3617389 4.2181691,5.4052913 3.7852669,5.6323828 3.4747568,6.0012668 l -0.022825,0.027108 c -0.1360564,0.161501 -0.1177521,0.4031925 0.042164,0.5377609 l 2.386702,2.0070572 -3.3572842,3.9903241 -0.193515,1.663246 1.6059694,-0.473994 3.3601463,-3.9879166 2.385698,2.0111426 c 0.079934,0.06754 0.1818473,0.09512 0.2787225,0.08595 0.096867,-0.0092 0.1904872,-0.05492 0.2583602,-0.135999 l 0.02283,-0.02712 c 0.3106,-0.368729 0.4592,-0.835273 0.420741,-1.31344 C 10.626907,9.9411802 10.431765,9.536514 10.11237,9.2346726 l 2.593513,-3.0802982 c 0.351835,0.2633124 0.783816,0.3865163 1.227604,0.3460464 0.477731,-0.04355 0.913345,-0.2708767 1.223771,-0.6397533 l 0.02283,-0.027107 c 0.06833,-0.080692 0.09747,-0.1807296 0.09,-0.2777494 -0.0075,-0.097022 -0.0532,-0.191319 -0.133373,-0.2585841 z"
     sodipodi:nodetypes="cscsccccccccccccccccccccccccc" />
</svg>
