<?xml version="1.0" encoding="UTF-8" standalone="no"?>
<svg
   enable-background="new 0 0 24 24"
   height="24px"
   viewBox="0 0 24 24"
   width="24px"
   fill="#e8eaed"
   version="1.1"
   id="svg2"
   sodipodi:docname="budgie-media-player-applet-unpinned.svg"
   inkscape:version="1.3.2 (091e20ef0f, 2023-11-25)"
   xmlns:inkscape="http://www.inkscape.org/namespaces/inkscape"
   xmlns:sodipodi="http://sodipodi.sourceforge.net/DTD/sodipodi-0.dtd"
   xmlns="http://www.w3.org/2000/svg"
   xmlns:svg="http://www.w3.org/2000/svg">
  <defs
     id="defs2" />
  <sodipodi:namedview
     id="namedview2"
     pagecolor="#ffffff"
     bordercolor="#111111"
     borderopacity="1"
     inkscape:showpageshadow="0"
     inkscape:pageopacity="0"
     inkscape:pagecheckerboard="1"
     inkscape:deskcolor="#d1d1d1"
     inkscape:zoom="35.583333"
     inkscape:cx="11.985948"
     inkscape:cy="12"
     inkscape:window-width="1870"
     inkscape:window-height="1052"
     inkscape:window-x="0"
     inkscape:window-y="0"
     inkscape:window-maximized="1"
     inkscape:current-layer="svg2" />
  <g
     id="g2">
    <path
       d="M14,4v5c0,1.12,0.37,2.16,1,3H9c0.65-0.86,1-1.9,1-3V4H14 M17,2H7C6.45,2,6,2.45,6,3c0,0.55,0.45,1,1,1c0,0,0,0,0,0l1,0v5 c0,1.66-1.34,3-3,3v2h5.97v7l1,1l1-1v-7H19v-2c0,0,0,0,0,0c-1.66,0-3-1.34-3-3V4l1,0c0,0,0,0,0,0c0.55,0,1-0.45,1-1 C18,2.45,17.55,2,17,2L17,2z"
       id="path1"
       style="fill:#454545;fill-opacity:1" />
  </g>
</svg>
